<?xml version="1.0" standalone="no"?>
<!DOCTYPE svg PUBLIC "-//W3C//DTD SVG 20010904//EN"
 "http://www.w3.org/TR/2001/REC-SVG-20010904/DTD/svg10.dtd">
<svg version="1.0" xmlns="http://www.w3.org/2000/svg"
 width="260.000000pt" height="260.000000pt" viewBox="0 0 260.000000 260.000000"
 preserveAspectRatio="xMidYMid meet">
<metadata>
Created by potrace 1.14, written by Peter Selinger 2001-2017
</metadata>
<g transform="translate(0.000000,260.000000) scale(0.100000,-0.100000)"
fill="#000000" stroke="none">
<path d="M1338 2424 c-6 -10 -61 -173 -64 -189 -3 -16 -205 -649 -208 -653 -6
-5 -459 -19 -818 -26 -26 0 -44 -3 -40 -7 4 -3 45 -35 92 -71 268 -203 346
-263 350 -268 3 -3 56 -43 118 -89 61 -47 112 -89 112 -94 0 -4 -43 -156 -96
-335 -52 -180 -104 -359 -115 -399 -10 -39 -23 -83 -29 -99 -9 -21 -8 -25 2
-17 7 6 99 70 203 144 105 73 259 182 344 241 l153 108 47 -34 c66 -48 636
-452 651 -461 7 -5 11 -4 8 1 -3 5 -12 34 -21 64 -9 30 -30 102 -47 160 -17
58 -37 125 -44 150 -7 25 -42 143 -76 262 -63 218 -63 218 -43 235 12 10 163
126 337 258 173 132 315 243 316 246 0 3 -21 6 -47 6 -64 1 -583 14 -706 18
-54 1 -100 5 -102 7 -2 2 -33 96 -69 208 -174 552 -204 642 -208 634z"/>
</g>
</svg>
